<svg width="1024" height="1024" viewBox="0 0 1024 1024" xmlns="http://www.w3.org/2000/svg">
<rect width="1024" height="1024" fill="#120505"/>
<g transform="translate(163.84 163.84) scale(10.88)">
<path d="M4 9H60V14Q46 23 32 15Q18 23 4 14Z" fill="#dbb155"/>
<path d="M6 15H23C20 27 20 41 22 51Q14 56 6 52Z" fill="#dbb155"/>
<path d="M58 15H41C44 27 44 41 42 51Q50 56 58 52Z" fill="#dbb155"/>
<path d="M32 26.5l2.06 5.67 6.02.2-4.75 3.71 1.67 5.8L32 38.5l-5 3.38 1.67-5.8-4.75-3.71 6.02-.2z" fill="#dbb155"/>
</g>
</svg>
